# xmcd CD database file generated by Grip 2.91
# 
# Track frame offsets:
#       150
#       9365
#       20790
#       38400
#       49842
#       65397
#       89820
#       102185
#       123492
#       138622
#       148385
#       163752
#       177410
#       192392
#       205442
#       217947
#       229720
#       266522
#       281292
#       296972
#       309182
#       321462
# 
# Disc length: 4736 seconds
# 
# Revision: 3
# Processed by: cddbd v1.4b41PL1 Copyright (c) Steve Scherf et al.
# Submitted via: Grip 2.91
# 
DISCID=55127e16
DTITLE=Sonny Terry, Brownie McGhee, Big Bill Broonzy - The Bluesmen
DYEAR=1900
DGENRE=
TTITLE0=I Love You Baby
TTITLE1=Cornbread, Peas And Black Molasses
TTITLE2=That's How I Feel
TTITLE3=Gone But Not Forgotten
TTITLE4=Treated Wrong
TTITLE5=Brownie's Blues
TTITLE6=Southern Train
TTITLE7=Just A Dream
TTITLE8=Sonny's Blues
TTITLE9=You'd Better Mind
TTITLE10=Change The Lock On My Door
TTITLE11=Climbing On The Top Of The Hill
TTITLE12=When Do I Get To Be Called A Man
TTITLE13=Mindin' My Own Business
TTITLE14=Partnership Woman
TTITLE15=St. Louis Blues
TTITLE16=Southern Saga (Inc. Joe Turner Blues)
TTITLE17=Southbound Train
TTITLE18=Saturday Evening
TTITLE19=Glory Of Love
TTITLE20=It Feels So Good
TTITLE21=When The Sun Goes Down/Going Down This Road Feeling Bad
EXTD=
EXTT0=
EXTT1=
EXTT2=
EXTT3=
EXTT4=
EXTT5=
EXTT6=
EXTT7=
EXTT8=
EXTT9=
EXTT10=
EXTT11=
EXTT12=
EXTT13=
EXTT14=
EXTT15=
EXTT16=
EXTT17=
EXTT18=
EXTT19=
EXTT20=
EXTT21=
PLAYORDER=
